# xmcd
#
# Track frame offsets: 
#        150
#        13808
#        25821
#        41923
#        58378
#        73286
#        92080
#        106554
#        121123
#        135695
#        155484
#        176912
#        192645
#        209285
#        228865
#        246969
#        263814
#        278180
#        293263
#        304526
#        321707
#        335115
#
# Disc length: 4678 seconds
#
# Revision: 0
# Processed by: cddbd v1.5.2PL0 Copyright (c) Steve Scherf et al.
# Submitted via: ExactAudioCopy v1.1
#
DISCID=50124416
DTITLE=Smolík Jakub - Největší hity country
DYEAR=1992
DGENRE=Country
TTITLE0=Řekněte jí
TTITLE1=Vzdálené bubny
TTITLE2=Nedělní ráno
TTITLE3=Vincent
TTITLE4=Chvíli jen chvíli
TTITLE5=Tam u nebeských bran
TTITLE6=Oh Ruby
TTITLE7=Blizzard
TTITLE8=Poslední kovboj
TTITLE9=Báječná ženská
TTITLE10=Prý chlapi nebrečí
TTITLE11=Čekal jsi asi víc
TTITLE12=Až se mě děti budou ptát
TTITLE13=Džínová láska
TTITLE14=Dívka s vlasem medovým
TTITLE15=Modrá z džín
TTITLE16=Veď mě dál cesto má
TTITLE17=Mám už dávno jinou
TTITLE18=Pojď stoupat jak dým
TTITLE19=Máma
TTITLE20=Sundej z hodin závaží
TTITLE21=Muž se srdcem kovboje
EXTD=
EXTT0=
EXTT1=
EXTT2=
EXTT3=
EXTT4=
EXTT5=
EXTT6=
EXTT7=
EXTT8=
EXTT9=
EXTT10=
EXTT11=
EXTT12=
EXTT13=
EXTT14=
EXTT15=
EXTT16=
EXTT17=
EXTT18=
EXTT19=
EXTT20=
EXTT21=
PLAYORDER=
